<?xml version="1.0" encoding="utf-8"?>
<!-- Generator: Adobe Illustrator 26.5.0, SVG Export Plug-In . SVG Version: 6.00 Build 0)  -->
<svg version="1.1" id="Layer_1" xmlns="http://www.w3.org/2000/svg" xmlns:xlink="http://www.w3.org/1999/xlink" x="0px" y="0px"
	 viewBox="0 0 195.5 165.9" style="enable-background:new 0 0 195.5 165.9;" xml:space="preserve">
<style type="text/css">
	.st0{fill:#7D476C;}
</style>
<path class="st0" d="M46.4,21C23.6,32.9,6.6,55.4,1.5,80.7c-2.1,10.4-2.2,21.4,1.1,31.5c3.8,11.4,11.8,21.1,21.1,28.7
	c24.3,19.8,57.3,26.4,88.7,24.7c24.9-1.4,50.9-8.4,68-26.6c17.1-18.2,21.4-49.7,4.1-67.7c-6.9-7.2-16.2-11.5-23.5-18.2
	c-17.7-16.1-24.4-45.8-47.6-51.9c-7.1-1.9-14.6-1-21.8,0.3C72,5,56.5,15.8,46.4,21"/>
</svg>
